<svg xmlns="http://www.w3.org/2000/svg" viewBox="0 0 1400 316.06"><defs><style>.cls-1{isolation:isolate;}.cls-2{fill:#ffd3ca;}.cls-3{opacity:0.7;}.cls-4,.cls-8{fill:none;stroke:#ff475b;stroke-linecap:round;stroke-linejoin:round;}.cls-4{stroke-width:3px;opacity:0.3;}.cls-4,.cls-5{mix-blend-mode:multiply;}.cls-5,.cls-7,.cls-8{opacity:0.4;}.cls-6{fill:#ff475b;}.cls-8{stroke-width:2px;}</style></defs><title>banner</title><g class="cls-1"><g id="Layer_1" data-name="Layer 1"><rect class="cls-2" y="55.41" width="1400" height="260.65"/><g class="cls-3"><polyline class="cls-4" points="631.72 185.85 624.2 193.61 616.69 185.85"/><polyline class="cls-4" points="691.72 159.85 684.2 167.61 676.69 159.85"/><circle class="cls-4" cx="592.89" cy="147.72" r="7.17"/><circle class="cls-4" cx="518.89" cy="63.72" r="7.17"/><polygon class="cls-4" points="585.46 88.5 577.1 74.67 568.73 88.5 585.46 88.5"/><polygon class="cls-4" points="684.46 220.5 676.1 206.67 667.73 220.5 684.46 220.5"/><polygon class="cls-4" points="558.04 123.96 550.01 132.86 541.98 123.96 550.01 115.06 558.04 123.96"/><rect class="cls-4" x="554.5" y="23.5" width="14" height="13"/><g class="cls-5"><path class="cls-6" d="M3738.65,3752.47a1.5,1.5,0,0,1-1.06,2.56,1.49,1.49,0,0,1-1.06-.44l-4.3-4.3-4.31,4.3a1.51,1.51,0,0,1-1.06.44,1.5,1.5,0,0,1-1.06-2.56l4.31-4.3-4.31-4.31a1.5,1.5,0,0,1,2.12-2.12l4.31,4.31,4.3-4.31a1.49,1.49,0,0,1,2.12,0,1.51,1.51,0,0,1,0,2.12l-4.3,4.31Z" transform="translate(-3120 -3718)"/></g><polyline class="cls-4" points="511.72 262.85 504.2 270.61 496.69 262.85"/><circle class="cls-4" cx="472.89" cy="224.72" r="7.17"/><circle class="cls-4" cx="355.89" cy="116.72" r="7.17"/><polygon class="cls-4" points="465.46 165.5 457.1 151.67 448.73 165.5 465.46 165.5"/><polygon class="cls-4" points="438.04 200.96 430.01 209.86 421.98 200.96 430.01 192.06 438.04 200.96"/><polyline class="cls-4" points="628.72 292.85 621.2 300.61 613.69 292.85"/><circle class="cls-4" cx="589.89" cy="254.72" r="7.17"/><circle class="cls-4" cx="515.89" cy="170.72" r="7.17"/><polygon class="cls-4" points="582.46 195.5 574.1 181.67 565.73 195.5 582.46 195.5"/><polygon class="cls-4" points="555.04 230.96 547.01 239.86 538.98 230.96 547.01 222.06 555.04 230.96"/><rect class="cls-4" x="434.5" y="100.5" width="14" height="13"/><g class="cls-5"><path class="cls-6" d="M3618.65,3829.47a1.5,1.5,0,0,1-1.06,2.56,1.49,1.49,0,0,1-1.06-.44l-4.3-4.3-4.31,4.3a1.51,1.51,0,0,1-1.06.44,1.5,1.5,0,0,1-1.06-2.56l4.31-4.3-4.31-4.31a1.5,1.5,0,0,1,2.12-2.12l4.31,4.31,4.3-4.31a1.49,1.49,0,0,1,2.12,0,1.51,1.51,0,0,1,0,2.12l-4.3,4.31Z" transform="translate(-3120 -3718)"/></g><circle class="cls-4" cx="1153.89" cy="173.72" r="7.17"/><rect class="cls-4" x="1069.5" y="210.5" width="14" height="13"/><g class="cls-5"><path class="cls-6" d="M4253.65,3939.47a1.5,1.5,0,0,1-1.06,2.56,1.49,1.49,0,0,1-1.06-.44l-4.3-4.3-4.31,4.3a1.51,1.51,0,0,1-1.06.44,1.5,1.5,0,0,1-1.06-2.56l4.31-4.3-4.31-4.31a1.5,1.5,0,1,1,2.12-2.12l4.31,4.31,4.3-4.31a1.49,1.49,0,0,1,2.12,0,1.51,1.51,0,0,1,0,2.12l-4.3,4.31Z" transform="translate(-3120 -3718)"/></g><polyline class="cls-4" points="344.72 265.85 337.2 273.61 329.69 265.85"/><circle class="cls-4" cx="305.89" cy="227.72" r="7.17"/><circle class="cls-4" cx="231.89" cy="143.72" r="7.17"/><polygon class="cls-4" points="298.46 168.5 290.1 154.67 281.73 168.5 298.46 168.5"/><polygon class="cls-4" points="271.04 203.96 263.01 212.86 254.98 203.96 263.01 195.06 271.04 203.96"/><circle class="cls-4" cx="348.89" cy="173.72" r="7.17"/><polygon class="cls-4" points="388.04 233.96 380.01 242.86 371.98 233.96 380.01 225.06 388.04 233.96"/><rect class="cls-4" x="267.5" y="103.5" width="14" height="13"/><g class="cls-5"><path class="cls-6" d="M3498.65,3786.47a1.5,1.5,0,0,1-1.06,2.56,1.49,1.49,0,0,1-1.06-.44l-4.3-4.3-4.31,4.3a1.51,1.51,0,0,1-1.06.44,1.5,1.5,0,0,1-1.06-2.56l4.31-4.3-4.31-4.31a1.5,1.5,0,0,1,2.12-2.12l4.31,4.31,4.3-4.31a1.49,1.49,0,0,1,2.12,0,1.51,1.51,0,0,1,0,2.12l-4.3,4.31Z" transform="translate(-3120 -3718)"/></g><circle class="cls-4" cx="1072.89" cy="102.72" r="7.17"/><polygon class="cls-4" points="1112.04 162.96 1104.01 171.86 1095.98 162.96 1104.01 154.06 1112.04 162.96"/><rect class="cls-4" x="1108.5" y="62.5" width="14" height="13"/><polyline class="cls-4" points="1065.72 301.85 1058.2 309.61 1050.69 301.85"/><circle class="cls-4" cx="1026.89" cy="263.72" r="7.17"/><circle class="cls-4" cx="872.89" cy="258.72" r="7.17"/><polygon class="cls-4" points="948.46 160.5 940.1 146.67 931.73 160.5 948.46 160.5"/><polygon class="cls-4" points="926.04 214.96 918.01 223.86 909.98 214.96 918.01 206.06 926.04 214.96"/><rect class="cls-4" x="882.5" y="152.5" width="14" height="13"/><g class="cls-5"><path class="cls-6" d="M4101.65,3824.47a1.5,1.5,0,0,1-1.06,2.56,1.49,1.49,0,0,1-1.06-.44l-4.3-4.3-4.31,4.3a1.51,1.51,0,0,1-1.06.44,1.5,1.5,0,0,1-1.06-2.56l4.31-4.3-4.31-4.31a1.5,1.5,0,0,1,2.12-2.12l4.31,4.31,4.3-4.31a1.49,1.49,0,0,1,2.12,0,1.51,1.51,0,0,1,0,2.12l-4.3,4.31Z" transform="translate(-3120 -3718)"/></g><g class="cls-7"><path class="cls-6" d="M3563,3962h-14a1.38,1.38,0,0,0-.91.9v0.17l-11.84,13.29a1.22,1.22,0,0,0-.25.75v13.51c0,0.55.46,0.39,1,.39h12.78a0.9,0.9,0,0,0,.7,0l13.18-12.81,0,0a1.41,1.41,0,0,0,.13-0.11,0.93,0.93,0,0,0,.16-0.53v-14C3564,3963.06,3563.56,3962,3563,3962Zm-1,14h-12v-12h12v12Zm-12.62,13H3538v-11.52l10-11.18v11.31c0,0.55.46,0.39,1,.39h11.56Z" transform="translate(-3120 -3718)"/></g><polygon class="cls-8" points="246 256 246 269.98 238.07 277 224 277 224 264.31 231.62 256 246 256"/><polygon class="cls-8" points="391 1 391 14.98 383.07 22 369 22 369 9.31 376.62 1 391 1"/><g class="cls-7"><path class="cls-6" d="M3419,4002.39h0a0.91,0.91,0,0,0,0-.16C3419.06,4002.28,3419.06,4002.33,3419,4002.39Z" transform="translate(-3120 -3718)"/><path class="cls-6" d="M3429.55,3982.42a8.75,8.75,0,0,0-12.33,0l-12.72,12.73-0.52.52a8.7,8.7,0,0,0,12.23,12.36l0.16-.13,0.31-.31,12.87-12.86A8.7,8.7,0,0,0,3429.55,3982.42Zm-14.3,23.77-0.28.28,0,0a6.71,6.71,0,0,1-9.53-9.44l0.46-.45a6.63,6.63,0,0,1,4.51-1.74,6.72,6.72,0,0,1,6.72,6.71A6.63,6.63,0,0,1,3415.25,4006.19Zm12.88-12.87-9.07,9.06h0a1,1,0,0,0,0-.17v-0.06c0-.19.06-0.39,0.06-0.58a8.7,8.7,0,0,0-8.7-8.71c-0.27,0-.53,0-0.8,0l9.07-9.07a6.73,6.73,0,0,1,9.49,0A6.7,6.7,0,0,1,3428.13,3993.32Z" transform="translate(-3120 -3718)"/><path class="cls-6" d="M3415,4006.47l0.28-.28a6.63,6.63,0,0,0,1.85-4.61A7.64,7.64,0,0,1,3415,4006.47Z" transform="translate(-3120 -3718)"/></g><g class="cls-7"><path class="cls-6" d="M3588,3770.39h0a0.91,0.91,0,0,0,0-.16C3588.06,3770.28,3588.06,3770.33,3588,3770.39Z" transform="translate(-3120 -3718)"/><path class="cls-6" d="M3598.55,3750.42a8.75,8.75,0,0,0-12.33,0l-12.72,12.73-0.52.52a8.7,8.7,0,0,0,12.23,12.36l0.16-.13,0.31-.31,12.87-12.86A8.7,8.7,0,0,0,3598.55,3750.42Zm-14.3,23.77-0.28.28,0,0a6.71,6.71,0,0,1-9.53-9.44l0.46-.45a6.63,6.63,0,0,1,4.51-1.74,6.72,6.72,0,0,1,6.72,6.71A6.63,6.63,0,0,1,3584.25,3774.19Zm12.88-12.87-9.07,9.06h0a1,1,0,0,0,0-.17v-0.06c0-.19.06-0.39,0.06-0.58a8.7,8.7,0,0,0-8.7-8.71c-0.27,0-.53,0-0.8,0l9.07-9.07a6.73,6.73,0,0,1,9.49,0A6.7,6.7,0,0,1,3597.13,3761.32Z" transform="translate(-3120 -3718)"/><path class="cls-6" d="M3584,3774.47l0.28-.28a6.63,6.63,0,0,0,1.85-4.61A7.64,7.64,0,0,1,3584,3774.47Z" transform="translate(-3120 -3718)"/></g><circle class="cls-4" cx="755.89" cy="125.72" r="7.17"/><polygon class="cls-4" points="822.46 150.5 814.1 136.67 805.73 150.5 822.46 150.5"/><polygon class="cls-4" points="795.04 185.96 787.01 194.86 778.98 185.96 787.01 177.06 795.04 185.96"/><rect class="cls-4" x="791.5" y="85.5" width="14" height="13"/><g class="cls-5"><path class="cls-6" d="M3975.65,3814.47a1.5,1.5,0,0,1-1.06,2.56,1.49,1.49,0,0,1-1.06-.44l-4.3-4.3-4.31,4.3a1.51,1.51,0,0,1-1.06.44,1.5,1.5,0,0,1-1.06-2.56l4.31-4.3-4.31-4.31a1.5,1.5,0,0,1,2.12-2.12l4.31,4.31,4.3-4.31a1.49,1.49,0,0,1,2.12,0,1.51,1.51,0,0,1,0,2.12l-4.3,4.31Z" transform="translate(-3120 -3718)"/></g><g class="cls-5"><path class="cls-6" d="M3855.65,3891.47a1.5,1.5,0,0,1-1.06,2.56,1.49,1.49,0,0,1-1.06-.44l-4.3-4.3-4.31,4.3a1.51,1.51,0,0,1-1.06.44,1.5,1.5,0,0,1-1.06-2.56l4.31-4.3-4.31-4.31a1.5,1.5,0,0,1,2.12-2.12l4.31,4.31,4.3-4.31a1.49,1.49,0,0,1,2.12,0,1.51,1.51,0,0,1,0,2.12l-4.3,4.31Z" transform="translate(-3120 -3718)"/></g><g class="cls-7"><path class="cls-6" d="M3825,3832.39h0a0.91,0.91,0,0,0,0-.16C3825.06,3832.28,3825.06,3832.33,3825,3832.39Z" transform="translate(-3120 -3718)"/><path class="cls-6" d="M3835.55,3812.42a8.75,8.75,0,0,0-12.33,0l-12.72,12.73-0.52.52a8.7,8.7,0,0,0,12.23,12.36l0.16-.13,0.31-.31,12.87-12.86A8.7,8.7,0,0,0,3835.55,3812.42Zm-14.3,23.77-0.28.28,0,0a6.71,6.71,0,0,1-9.53-9.44l0.46-.45a6.63,6.63,0,0,1,4.51-1.74,6.72,6.72,0,0,1,6.72,6.71A6.63,6.63,0,0,1,3821.25,3836.19Zm12.88-12.87-9.07,9.06h0a1,1,0,0,0,0-.17v-0.06c0-.19.06-0.39,0.06-0.58a8.7,8.7,0,0,0-8.7-8.71c-0.27,0-.53,0-0.8,0l9.07-9.07a6.73,6.73,0,0,1,9.49,0A6.7,6.7,0,0,1,3834.13,3823.32Z" transform="translate(-3120 -3718)"/><path class="cls-6" d="M3821,3836.47l0.28-.28a6.63,6.63,0,0,0,1.85-4.61A7.64,7.64,0,0,1,3821,3836.47Z" transform="translate(-3120 -3718)"/></g></g></g></g></svg>