<svg xmlns="http://www.w3.org/2000/svg" viewBox="0 0 1400 314.06"><defs><style>.cls-1{isolation:isolate;}.cls-2{fill:#ffd3ca;}.cls-3{opacity:0.7;}.cls-4,.cls-9{fill:none;stroke-linecap:round;stroke-linejoin:round;stroke-width:3px;}.cls-10,.cls-4,.cls-8,.cls-9{stroke:#ff475b;}.cls-4{opacity:0.3;}.cls-4,.cls-5{mix-blend-mode:multiply;}.cls-5,.cls-7,.cls-9{opacity:0.4;}.cls-10,.cls-6,.cls-8{fill:#ff475b;}.cls-10,.cls-8{stroke-miterlimit:10;}.cls-10{stroke-width:0.91px;}</style></defs><title>banner</title><g class="cls-1"><g id="Layer_1" data-name="Layer 1"><rect class="cls-2" y="53.41" width="1400" height="260.65"/><g class="cls-3"><polyline class="cls-4" points="631.72 183.85 624.2 191.61 616.69 183.85"/><polyline class="cls-4" points="691.72 157.85 684.2 165.61 676.69 157.85"/><circle class="cls-4" cx="592.89" cy="145.72" r="7.17"/><circle class="cls-4" cx="518.89" cy="61.72" r="7.17"/><polygon class="cls-4" points="585.46 86.5 577.1 72.67 568.73 86.5 585.46 86.5"/><polygon class="cls-4" points="684.46 218.5 676.1 204.67 667.73 218.5 684.46 218.5"/><polygon class="cls-4" points="558.04 121.96 550.01 130.86 541.98 121.96 550.01 113.06 558.04 121.96"/><rect class="cls-4" x="554.5" y="21.5" width="14" height="13"/><g class="cls-5"><path class="cls-6" d="M3738.65,4047.58a1.5,1.5,0,0,1-1.06,2.56,1.49,1.49,0,0,1-1.06-.44l-4.3-4.3-4.31,4.3a1.51,1.51,0,0,1-1.06.44,1.5,1.5,0,0,1-1.06-2.56l4.31-4.3-4.31-4.31a1.5,1.5,0,0,1,2.12-2.12l4.31,4.31,4.3-4.31a1.49,1.49,0,0,1,2.12,0,1.51,1.51,0,0,1,0,2.12l-4.3,4.31Z" transform="translate(-3120 -4015.11)"/></g><polyline class="cls-4" points="511.72 260.85 504.2 268.61 496.69 260.85"/><circle class="cls-4" cx="472.89" cy="222.72" r="7.17"/><circle class="cls-4" cx="355.89" cy="114.72" r="7.17"/><polygon class="cls-4" points="465.46 163.5 457.1 149.67 448.73 163.5 465.46 163.5"/><polygon class="cls-4" points="438.04 198.96 430.01 207.86 421.98 198.96 430.01 190.06 438.04 198.96"/><polyline class="cls-4" points="628.72 290.85 621.2 298.61 613.69 290.85"/><circle class="cls-4" cx="589.89" cy="252.72" r="7.17"/><circle class="cls-4" cx="515.89" cy="168.72" r="7.17"/><polygon class="cls-4" points="582.46 193.5 574.1 179.67 565.73 193.5 582.46 193.5"/><polygon class="cls-4" points="555.04 228.96 547.01 237.86 538.98 228.96 547.01 220.06 555.04 228.96"/><rect class="cls-4" x="434.5" y="98.5" width="14" height="13"/><g class="cls-5"><path class="cls-6" d="M3618.65,4124.58a1.5,1.5,0,0,1-1.06,2.56,1.49,1.49,0,0,1-1.06-.44l-4.3-4.3-4.31,4.3a1.51,1.51,0,0,1-1.06.44,1.5,1.5,0,0,1-1.06-2.56l4.31-4.3-4.31-4.31a1.5,1.5,0,0,1,2.12-2.12l4.31,4.31,4.3-4.31a1.49,1.49,0,0,1,2.12,0,1.51,1.51,0,0,1,0,2.12l-4.3,4.31Z" transform="translate(-3120 -4015.11)"/></g><circle class="cls-4" cx="1170.89" cy="189.72" r="7.17"/><circle class="cls-4" cx="1258.89" cy="284.72" r="7.17"/><rect class="cls-4" x="1069.5" y="208.5" width="14" height="13"/><g class="cls-5"><path class="cls-6" d="M4258.65,4245.58a1.5,1.5,0,0,1-1.06,2.56,1.49,1.49,0,0,1-1.06-.44l-4.3-4.3-4.31,4.3a1.51,1.51,0,0,1-1.06.44,1.5,1.5,0,0,1-1.06-2.56l4.31-4.3-4.31-4.31a1.5,1.5,0,0,1,2.12-2.12l4.31,4.31,4.3-4.31a1.49,1.49,0,0,1,2.12,0,1.51,1.51,0,0,1,0,2.12l-4.3,4.31Z" transform="translate(-3120 -4015.11)"/></g><g class="cls-5"><path class="cls-6" d="M4100.65,4221.58a1.5,1.5,0,0,1-1.06,2.56,1.49,1.49,0,0,1-1.06-.44l-4.3-4.3-4.31,4.3a1.51,1.51,0,0,1-1.06.44,1.5,1.5,0,0,1-1.06-2.56l4.31-4.3-4.31-4.31a1.5,1.5,0,0,1,2.12-2.12l4.31,4.31,4.3-4.31a1.49,1.49,0,0,1,2.12,0,1.51,1.51,0,0,1,0,2.12l-4.3,4.31Z" transform="translate(-3120 -4015.11)"/></g><polyline class="cls-4" points="344.72 263.85 337.2 271.61 329.69 263.85"/><circle class="cls-4" cx="305.89" cy="225.72" r="7.17"/><circle class="cls-4" cx="231.89" cy="141.72" r="7.17"/><polygon class="cls-4" points="298.46 166.5 290.1 152.67 281.73 166.5 298.46 166.5"/><polygon class="cls-4" points="271.04 201.96 263.01 210.86 254.98 201.96 263.01 193.06 271.04 201.96"/><circle class="cls-4" cx="348.89" cy="171.72" r="7.17"/><polygon class="cls-4" points="388.04 231.96 380.01 240.86 371.98 231.96 380.01 223.06 388.04 231.96"/><rect class="cls-4" x="267.5" y="101.5" width="14" height="13"/><g class="cls-5"><path class="cls-6" d="M3498.65,4081.58a1.5,1.5,0,0,1-1.06,2.56,1.49,1.49,0,0,1-1.06-.44l-4.3-4.3-4.31,4.3a1.51,1.51,0,0,1-1.06.44,1.5,1.5,0,0,1-1.06-2.56l4.31-4.3-4.31-4.31a1.5,1.5,0,0,1,2.12-2.12l4.31,4.31,4.3-4.31a1.49,1.49,0,0,1,2.12,0,1.51,1.51,0,0,1,0,2.12l-4.3,4.31Z" transform="translate(-3120 -4015.11)"/></g><circle class="cls-4" cx="1072.89" cy="100.72" r="7.17"/><polygon class="cls-4" points="1112.04 160.96 1104.01 169.86 1095.98 160.96 1104.01 152.06 1112.04 160.96"/><rect class="cls-4" x="1108.5" y="60.5" width="14" height="13"/><polyline class="cls-4" points="1065.72 299.85 1058.2 307.61 1050.69 299.85"/><circle class="cls-4" cx="1026.89" cy="261.72" r="7.17"/><circle class="cls-4" cx="872.89" cy="256.72" r="7.17"/><polygon class="cls-4" points="948.46 158.5 940.1 144.67 931.73 158.5 948.46 158.5"/><polygon class="cls-4" points="1035.46 191.5 1027.1 177.67 1018.73 191.5 1035.46 191.5"/><polygon class="cls-4" points="926.04 212.96 918.01 221.86 909.98 212.96 918.01 204.06 926.04 212.96"/><rect class="cls-4" x="882.5" y="150.5" width="14" height="13"/><g class="cls-5"><path class="cls-6" d="M4101.65,4119.58a1.5,1.5,0,0,1-1.06,2.56,1.49,1.49,0,0,1-1.06-.44l-4.3-4.3-4.31,4.3a1.51,1.51,0,0,1-1.06.44,1.5,1.5,0,0,1-1.06-2.56l4.31-4.3-4.31-4.31a1.5,1.5,0,0,1,2.12-2.12l4.31,4.31,4.3-4.31a1.49,1.49,0,0,1,2.12,0,1.51,1.51,0,0,1,0,2.12l-4.3,4.31Z" transform="translate(-3120 -4015.11)"/></g><g class="cls-7"><path class="cls-8" d="M3561.16,4259.61h-12.07a0.91,0.91,0,0,0-.78.56v0l-10.39,11.4a1.19,1.19,0,0,0-.41.59v11.65a1.21,1.21,0,0,0,1.25.77h11a0.81,0.81,0,0,0,.6-0.2l11.36-11.15,0,0s-0.18-.08-0.15-0.12a1,1,0,0,0-.12-0.49v-12.06C3561.5,4260.1,3561.64,4259.61,3561.16,4259.61Zm-1.66,12h-10v-10h10v10Zm-10.09,11h-9.91v-10.08l8-9.64v9.75c0,0.47,1.12,1,1.59,1h10Z" transform="translate(-3120 -4015.11)"/></g><g class="cls-7"><path class="cls-8" d="M4334.77,4252.61H4322.7a0.74,0.74,0,0,0-.78.33v-0.07l-10.19,11.34a0.76,0.76,0,0,0-.21.53v11.65a1.24,1.24,0,0,0,.86,1.22h11a1.11,1.11,0,0,0,.6-0.43l11.36-11.26,0-.08a1,1,0,0,0,0-.15,0.94,0.94,0,0,0,.08-0.51v-12.06C4335.5,4252.64,4335.24,4252.61,4334.77,4252.61Zm-1.27,12h-10v-10h10v10Zm-10.48,11h-9.52v-10.54l8-9.64v9.75a1.86,1.86,0,0,0,1.2,1.42h10Z" transform="translate(-3120 -4015.11)"/></g><polygon class="cls-9" points="388.5 1.5 388.5 12.48 382.47 19.5 369.5 19.5 369.5 7.76 377.1 1.5 388.5 1.5"/><polygon class="cls-9" points="253.5 258.5 253.5 269.49 247.47 276.5 234.5 276.5 234.5 264.76 242.1 258.5 253.5 258.5"/><g class="cls-7"><path class="cls-8" d="M3419,4297.5h0a0.91,0.91,0,0,0,0-.16C3419.06,4297.39,3419.06,4297.44,3419,4297.5Z" transform="translate(-3120 -4015.11)"/><path class="cls-8" d="M3429.55,4277.53a8.75,8.75,0,0,0-12.33,0l-12.72,12.73-0.52.52a8.7,8.7,0,0,0,12.23,12.36l0.16-.13,0.31-.31,12.87-12.86A8.7,8.7,0,0,0,3429.55,4277.53Zm-14.3,23.77-0.28.28,0,0a6.71,6.71,0,0,1-9.53-9.44l0.46-.45a6.63,6.63,0,0,1,4.51-1.74,6.72,6.72,0,0,1,6.72,6.71A6.63,6.63,0,0,1,3415.25,4301.3Zm12.88-12.87-9.07,9.06h-0.29c0-.06-0.26-0.11-0.26-0.17v-0.06c0-.19.31-0.39,0.31-0.58a8.6,8.6,0,0,0-8.58-8.71c-0.27,0-.47,0-0.74,0l9.11-9.07a6.75,6.75,0,0,1,9.51,0A6.7,6.7,0,0,1,3428.13,4288.43Z" transform="translate(-3120 -4015.11)"/><path class="cls-8" d="M3415,4301.58l0.28-.28a6.63,6.63,0,0,0,1.85-4.61A7.64,7.64,0,0,1,3415,4301.58Z" transform="translate(-3120 -4015.11)"/></g><g class="cls-7"><path class="cls-8" d="M3828,4127.5h0a0.91,0.91,0,0,0,0-.16C3828.06,4127.39,3828.06,4127.44,3828,4127.5Z" transform="translate(-3120 -4015.11)"/><path class="cls-8" d="M3838.55,4107.53a8.75,8.75,0,0,0-12.33,0l-12.72,12.73-0.52.52a8.7,8.7,0,0,0,12.23,12.36l0.16-.13,0.31-.31,12.87-12.86A8.7,8.7,0,0,0,3838.55,4107.53Zm-14.3,23.77-0.28.28,0,0a6.71,6.71,0,0,1-9.53-9.44l0.46-.45a6.63,6.63,0,0,1,4.51-1.74,6.72,6.72,0,0,1,6.72,6.71A6.63,6.63,0,0,1,3824.25,4131.3Zm12.88-12.87-9.07,9.06h-0.29c0-.06-0.26-0.11-0.26-0.17v-0.06c0-.19.31-0.39,0.31-0.58a8.6,8.6,0,0,0-8.58-8.71c-0.27,0-.47,0-0.74,0l9.11-9.07a6.75,6.75,0,0,1,9.51,0A6.7,6.7,0,0,1,3837.13,4118.43Z" transform="translate(-3120 -4015.11)"/><path class="cls-8" d="M3824,4131.58l0.28-.28a6.63,6.63,0,0,0,1.85-4.61A7.64,7.64,0,0,1,3824,4131.58Z" transform="translate(-3120 -4015.11)"/></g><g class="cls-7"><path class="cls-10" d="M3587.84,4064.81h0a0.83,0.83,0,0,0,0-.14C3587.85,4064.71,3587.85,4064.75,3587.84,4064.81Z" transform="translate(-3120 -4015.11)"/><path class="cls-8" d="M3597.35,4046.72a7.92,7.92,0,0,0-11.16,0l-11.52,11.53-0.47.47a7.88,7.88,0,0,0,11.07,11.19l0.14-.12,0.28-.28,11.65-11.64A7.88,7.88,0,0,0,3597.35,4046.72Zm-12.95,21.52-0.25.25,0,0a6.08,6.08,0,0,1-8.63-8.55l0.42-.41A6,6,0,0,1,3580,4058a6.08,6.08,0,0,1,6.08,6.08A6,6,0,0,1,3584.4,4068.25Zm11.66-11.65-8.21,8.2h-0.19c0-.05-0.16-0.1-0.16-0.15v-0.05c0-.17.21-0.35,0.21-0.53a7.82,7.82,0,0,0-7.81-7.89l-0.69,0,8.24-8.21a6.11,6.11,0,0,1,8.6,0A6.07,6.07,0,0,1,3596.06,4056.59Z" transform="translate(-3120 -4015.11)"/><path class="cls-6" d="M3584.15,4068.5l0.25-.25a6,6,0,0,0,1.68-4.17A6.92,6.92,0,0,1,3584.15,4068.5Z" transform="translate(-3120 -4015.11)"/></g><g class="cls-7"><path class="cls-10" d="M4141.84,4165.81h0a0.83,0.83,0,0,0,0-.14C4141.85,4165.71,4141.85,4165.75,4141.84,4165.81Z" transform="translate(-3120 -4015.11)"/><path class="cls-8" d="M4151.35,4147.72a7.92,7.92,0,0,0-11.16,0l-11.52,11.53-0.47.47a7.88,7.88,0,0,0,11.07,11.19l0.14-.12,0.28-.28,11.65-11.64A7.88,7.88,0,0,0,4151.35,4147.72Zm-12.95,21.52-0.25.25,0,0a6.08,6.08,0,0,1-8.63-8.55l0.42-.41A6,6,0,0,1,4134,4159a6.08,6.08,0,0,1,6.08,6.08A6,6,0,0,1,4138.4,4169.25Zm11.66-11.65-8.21,8.2h-0.19c0-.05-0.16-0.1-0.16-0.15v-0.05c0-.17.21-0.35,0.21-0.53a7.82,7.82,0,0,0-7.81-7.89l-0.69,0,8.24-8.21a6.11,6.11,0,0,1,8.6,0A6.07,6.07,0,0,1,4150.06,4157.59Z" transform="translate(-3120 -4015.11)"/><path class="cls-6" d="M4138.15,4169.5l0.25-.25a6,6,0,0,0,1.68-4.17A6.92,6.92,0,0,1,4138.15,4169.5Z" transform="translate(-3120 -4015.11)"/></g><circle class="cls-4" cx="755.89" cy="123.72" r="7.17"/><polygon class="cls-4" points="822.46 148.5 814.1 134.67 805.73 148.5 822.46 148.5"/><polygon class="cls-4" points="795.04 183.96 787.01 192.86 778.98 183.96 787.01 175.06 795.04 183.96"/><rect class="cls-4" x="791.5" y="83.5" width="14" height="13"/><g class="cls-5"><path class="cls-6" d="M3975.65,4109.58a1.5,1.5,0,0,1-1.06,2.56,1.49,1.49,0,0,1-1.06-.44l-4.3-4.3-4.31,4.3a1.51,1.51,0,0,1-1.06.44,1.5,1.5,0,0,1-1.06-2.56l4.31-4.3-4.31-4.31a1.5,1.5,0,0,1,2.12-2.12l4.31,4.31,4.3-4.31a1.49,1.49,0,0,1,2.12,0,1.51,1.51,0,0,1,0,2.12l-4.3,4.31Z" transform="translate(-3120 -4015.11)"/></g><g class="cls-5"><path class="cls-6" d="M3855.65,4186.58a1.5,1.5,0,0,1-1.06,2.56,1.49,1.49,0,0,1-1.06-.44l-4.3-4.3-4.31,4.3a1.51,1.51,0,0,1-1.06.44,1.5,1.5,0,0,1-1.06-2.56l4.31-4.3-4.31-4.31a1.5,1.5,0,0,1,2.12-2.12l4.31,4.31,4.3-4.31a1.49,1.49,0,0,1,2.12,0,1.51,1.51,0,0,1,0,2.12l-4.3,4.31Z" transform="translate(-3120 -4015.11)"/></g><polygon class="cls-9" points="1170.5 268.5 1170.5 279.49 1164.47 286.5 1151.5 286.5 1151.5 274.76 1159.1 268.5 1170.5 268.5"/></g></g></g></svg>