<svg id="Layer_1" data-name="Layer 1" xmlns="http://www.w3.org/2000/svg" viewBox="0 0 217 35.21"><defs><style>.cls-1,.cls-2,.cls-3{fill:none;stroke-miterlimit:10;}.cls-1,.cls-3{stroke:#ff475b;}.cls-1{stroke-width:1.5px;}.cls-2{stroke:#0058ff;stroke-width:3px;}.cls-2,.cls-3{stroke-linecap:round;}.cls-3{stroke-width:2px;}</style></defs><title>divider_lightbulb</title><path class="cls-1" d="M706.5,4676.85a7.39,7.39,0,0,1-3.43,6.24,0.86,0.86,0,0,0-.4.66l-0.42,5a1,1,0,0,1-.94.87h-4.4a1,1,0,0,1-.94-0.87l-0.43-5.07a0.86,0.86,0,0,0-.38-0.64A7.33,7.33,0,1,1,706.5,4676.85Z" transform="translate(-590.5 -4655.11)"/><line class="cls-1" x1="112.27" y1="28.94" x2="105.28" y2="31.42"/><line class="cls-1" x1="112.27" y1="30.94" x2="105.28" y2="33.42"/><line class="cls-2" x1="136.5" y1="26.5" x2="215.5" y2="26.5"/><line class="cls-2" x1="1.5" y1="26.5" x2="76.5" y2="26.5"/><line class="cls-3" x1="108.5" y1="8" x2="108.5" y2="1"/><line class="cls-3" x1="120.5" y1="21" x2="127.5" y2="21"/><line class="cls-3" x1="89.5" y1="21" x2="96.5" y2="21"/><line class="cls-3" x1="93.55" y1="7.05" x2="98.5" y2="12"/><line class="cls-3" x1="123.5" y1="7.05" x2="118.55" y2="12"/></svg>