<svg id="Layer_1" data-name="Layer 1" xmlns="http://www.w3.org/2000/svg" viewBox="0 0 65.64 65.64"><defs><style>.cls-1{fill:#0058ff;}.cls-2{fill:#fff;}.cls-3{fill:none;stroke:#fff;stroke-linejoin:round;stroke-width:1.11px;}</style></defs><title>group_icon_tab</title><path class="cls-1" d="M238.94,7080.59h62.11a3.53,3.53,0,0,1,3.53,3.53v58.58a3.53,3.53,0,0,1-3.53,3.53H238.94a0,0,0,0,1,0,0v-65.64a0,0,0,0,1,0,0Z" transform="translate(304.59 7146.23) rotate(180)"/><circle class="cls-2" cx="32.73" cy="33.18" r="7.75"/><circle class="cls-3" cx="32.73" cy="33.18" r="13.78"/><circle class="cls-3" cx="32.73" cy="33.18" r="21.09"/><circle class="cls-2" cx="18.95" cy="33.18" r="3.27"/><circle class="cls-2" cx="39.61" cy="21.37" r="3.27"/><circle class="cls-2" cx="22.92" cy="51.84" r="3.27"/><circle class="cls-2" cx="22.21" cy="14.84" r="3.27"/><circle class="cls-2" cx="40.47" cy="45.31" r="3.27"/><circle class="cls-2" cx="53.82" cy="32.82" r="3.27"/></svg>