<svg id="Layer_1" data-name="Layer 1" xmlns="http://www.w3.org/2000/svg" viewBox="0 0 95.1 95.1"><defs><style>.cls-1{fill:#fff;}.cls-2,.cls-3,.cls-4,.cls-5{fill:none;stroke:#0058ff;stroke-miterlimit:10;}.cls-2{stroke-width:2.61px;}.cls-3{stroke-width:1.85px;}.cls-4,.cls-5{stroke-linecap:round;}.cls-4{stroke-width:3px;}.cls-5{stroke-width:2.78px;}</style></defs><title>ideate</title><rect class="cls-1" width="95.1" height="95.1"/><path class="cls-2" d="M3967.49,61.08A15.3,15.3,0,0,1,3960.4,74a1.79,1.79,0,0,0-.82,1.36l-0.87,10.28a2,2,0,0,1-2,1.8h-9.11a2,2,0,0,1-2-1.8l-0.89-10.49a1.78,1.78,0,0,0-.78-1.34A15.17,15.17,0,1,1,3967.49,61.08Z" transform="translate(-3905.5)"/><line class="cls-3" x1="54.27" y1="74.69" x2="39.79" y2="79.83"/><line class="cls-3" x1="54.27" y1="78.61" x2="39.79" y2="83.75"/><line class="cls-3" x1="54.27" y1="82.53" x2="41.16" y2="87.18"/><line class="cls-4" x1="46" y1="32" x2="46" y2="18"/><line class="cls-4" x1="73.5" y1="61.5" x2="89.5" y2="61.5"/><line class="cls-4" x1="3.5" y1="61.5" x2="19.5" y2="61.5"/><line class="cls-5" x1="16.43" y1="31.6" x2="26.68" y2="41.85"/><line class="cls-5" x1="78.45" y1="31.6" x2="68.2" y2="41.85"/></svg>