<svg id="Layer_1" data-name="Layer 1" xmlns="http://www.w3.org/2000/svg" viewBox="0 0 400 289.13"><defs><style>.cls-1,.cls-2,.cls-3,.cls-5{fill:none;}.cls-1,.cls-3{stroke:#0058ff;stroke-width:3px;}.cls-1,.cls-3,.cls-4,.cls-5,.cls-6,.cls-7{stroke-linecap:round;}.cls-1,.cls-2,.cls-3{stroke-miterlimit:10;}.cls-2,.cls-4,.cls-5,.cls-6,.cls-7{stroke:#ff475b;}.cls-2{stroke-width:1.5px;}.cls-3{stroke-dasharray:9 12;}.cls-4{fill:#ff475b;}.cls-4,.cls-5,.cls-6,.cls-7{stroke-linejoin:round;}.cls-4,.cls-5{stroke-width:0.8px;}.cls-6,.cls-7{fill:#0058ff;}.cls-6{stroke-width:1px;}</style></defs><title>problem_divider</title><line class="cls-1" x1="224.5" y1="281.82" x2="398.5" y2="281.82"/><line class="cls-1" x1="1.5" y1="281.82" x2="175.5" y2="281.82"/><path class="cls-2" d="M2136.5,4365.85a7.39,7.39,0,0,1-3.43,6.24,0.86,0.86,0,0,0-.4.66l-0.42,5a1,1,0,0,1-.94.87h-4.4a1,1,0,0,1-.94-0.87l-0.43-5.07a0.86,0.86,0,0,0-.38-0.64A7.33,7.33,0,1,1,2136.5,4365.85Z" transform="translate(-1929.5 -4357.79)"/><line class="cls-2" x1="203.27" y1="15.26" x2="196.28" y2="17.74"/><line class="cls-2" x1="203.27" y1="17.26" x2="196.28" y2="19.74"/><polyline class="cls-1" points="185.64 216.15 200.36 228.15 215.36 216.15"/><line class="cls-3" x1="200.36" y1="228.15" x2="200.17" y2="48.15"/><rect class="cls-4" x="2126.43" y="4630.81" width="2.35" height="17.43" transform="translate(1974.3 -4503.35) rotate(45)"/><rect class="cls-5" x="2133.57" y="4630.95" width="2.35" height="2.85" transform="translate(1971.34 -4510.5) rotate(45)"/><line class="cls-6" x1="202.59" y1="269.9" x2="199.06" y2="266.38"/><line class="cls-6" x1="213.4" y1="280.72" x2="209.88" y2="277.19"/><line class="cls-7" x1="205" y1="268.32" x2="205" y2="264.32"/><line class="cls-7" x1="215.5" y1="274.82" x2="211.5" y2="274.82"/><line class="cls-6" x1="212.93" y1="266.85" x2="209.4" y2="270.37"/></svg>