<svg id="Layer_1" data-name="Layer 1" xmlns="http://www.w3.org/2000/svg" viewBox="0 0 95.1 95.1"><defs><style>.cls-1{fill:#fff;}.cls-2{fill:#0058ff;}.cls-3,.cls-4,.cls-5,.cls-6{fill:none;stroke:#0058ff;stroke-linecap:round;}.cls-3,.cls-4{stroke-linejoin:round;}.cls-3,.cls-5{stroke-width:2px;}.cls-4,.cls-6{stroke-width:1.85px;}.cls-5,.cls-6{stroke-miterlimit:10;}</style></defs><title>research</title><rect class="cls-1" width="95.1" height="95.1"/><path class="cls-2" d="M3543.69,88.06h0a3.55,3.55,0,0,1-3.55-3.55V66.78h7.1V84.51A3.55,3.55,0,0,1,3543.69,88.06Z" transform="translate(-3524.93)"/><line class="cls-3" x1="12.07" y1="39" x2="25.07" y2="39"/><line class="cls-3" x1="47.07" y1="39" x2="60.07" y2="39"/><path class="cls-4" d="M14.69,38.73h8.14a0,0,0,0,1,0,0V84a4.07,4.07,0,0,1-4.07,4.07h0A4.07,4.07,0,0,1,14.69,84V38.73a0,0,0,0,1,0,0Z"/><polygon class="cls-4" points="74.81 88.06 33.12 88.06 49.84 56.9 49.84 38.73 57.98 38.73 57.98 56.85 74.81 88.06"/><polygon class="cls-2" points="74.81 88.06 33.12 88.06 41.2 73.01 66.68 73.01 74.81 88.06"/><line class="cls-5" x1="19.07" y1="59" x2="22.07" y2="59"/><line class="cls-5" x1="19.07" y1="54" x2="22.07" y2="54"/><line class="cls-5" x1="19.07" y1="64" x2="22.07" y2="64"/><line class="cls-5" x1="61.07" y1="70" x2="65.07" y2="70"/><line class="cls-5" x1="59.07" y1="66" x2="62.07" y2="66"/><line class="cls-5" x1="56.07" y1="61" x2="59.07" y2="61"/><circle class="cls-6" cx="55" cy="12.99" r="5.25"/><circle class="cls-6" cx="47.48" cy="23.71" r="2.65"/><circle class="cls-6" cx="54.63" cy="31.19" r="2.22"/><polygon class="cls-2" points="23.07 42.6 14.58 42.6 13.65 34.56 24 34.56 23.07 42.6"/></svg>