<svg id="Layer_1" data-name="Layer 1" xmlns="http://www.w3.org/2000/svg" viewBox="0 0 176.54 219.99"><defs><style>.cls-1,.cls-6,.cls-9{fill:#fff;}.cls-10,.cls-2,.cls-5,.cls-7,.cls-8{fill:none;}.cls-2{stroke:#9ac4d8;stroke-width:5px;}.cls-10,.cls-2,.cls-7,.cls-8,.cls-9{stroke-linecap:round;}.cls-10,.cls-2,.cls-4,.cls-5,.cls-9{stroke-linejoin:round;}.cls-3{font-size:18px;fill:#0058ff;font-family:Roboto;}.cls-4{fill:#ff475b;stroke-width:1.19px;}.cls-10,.cls-4,.cls-5,.cls-6,.cls-7,.cls-8,.cls-9{stroke:#ff475b;}.cls-5{stroke-width:3.57px;}.cls-6,.cls-7,.cls-8{stroke-miterlimit:10;}.cls-6{stroke-width:4px;}.cls-7{stroke-width:2.38px;}.cls-8{stroke-width:2px;}.cls-9{stroke-width:2.61px;}.cls-10{stroke-width:3.62px;}</style></defs><title>branding</title><rect class="cls-1" width="176.54" height="219.99"/><rect class="cls-2" x="7.46" y="36.35" width="160" height="160"/><text class="cls-3" transform="translate(41.76 175.77)">BRANDING</text><rect class="cls-4" x="46.88" y="102.86" width="84.82" height="7.13"/><rect class="cls-5" x="41.73" y="82.25" width="95.13" height="20.61"/><rect class="cls-5" x="73.18" y="67.64" width="31.83" height="14.61"/><path class="cls-6" d="M2840.65,4402.7a13.8,13.8,0,0,1-8.65,12.78V4432h-10v-16.52a13.93,13.93,0,0,1-8.8-12.78A13.73,13.73,0,0,1,2840.65,4402.7Z" transform="translate(-2738.04 -4365.15)"/><path class="cls-7" d="M2835.18,4399.59a13.81,13.81,0,0,1-.18,6.94" transform="translate(-2738.04 -4365.15)"/><line class="cls-8" x1="96.96" y1="66.85" x2="96.96" y2="81.85"/><line class="cls-8" x1="122.96" y1="82.85" x2="122.96" y2="91.85"/><line class="cls-8" x1="122.96" y1="95.85" x2="122.96" y2="102.85"/><path class="cls-9" d="M2861.91,4491.55c-4.89-1.37-18.86-2.24-32.62-2.28-13.93,0-29,.75-35.13,2.14-9.11,2.07,3.67,4.67,32.88,4.67C2855.48,4496.08,2869.1,4493.57,2861.91,4491.55Z" transform="translate(-2738.04 -4365.15)"/><path class="cls-10" d="M2866,4491.24c-5.34-1.76-20.62-2.86-35.65-2.91-15.23-.06-31.71,1-38.4,2.73-10,2.64,4,6,35.94,6C2859,4497,2873.87,4493.83,2866,4491.24Z" transform="translate(-2738.04 -4365.15)"/></svg>