<svg id="Layer_1" data-name="Layer 1" xmlns="http://www.w3.org/2000/svg" viewBox="0 0 176.54 219.99"><defs><style>.cls-1,.cls-11,.cls-12{fill:#fff;}.cls-10,.cls-2,.cls-5,.cls-6,.cls-7,.cls-8,.cls-9{fill:none;}.cls-2{stroke:#9ac4d8;stroke-width:5px;}.cls-10,.cls-11,.cls-12,.cls-2,.cls-8,.cls-9{stroke-linecap:round;}.cls-10,.cls-11,.cls-12,.cls-2,.cls-5,.cls-6,.cls-7,.cls-8,.cls-9{stroke-linejoin:round;}.cls-3{font-size:18px;fill:#0058ff;font-family:Roboto;}.cls-4{letter-spacing:1px;}.cls-10,.cls-11,.cls-12,.cls-5,.cls-6,.cls-7,.cls-8,.cls-9{stroke:#ff475b;}.cls-5{stroke-width:3.05px;}.cls-6{stroke-width:3px;}.cls-7{stroke-width:1.74px;}.cls-10,.cls-11,.cls-8,.cls-9{stroke-width:2.74px;}.cls-9{stroke-dasharray:3.49 5.23;}.cls-10{stroke-dasharray:3.27 4.91;}.cls-12{stroke-width:1.83px;}</style></defs><title>prototyping</title><rect class="cls-1" width="176.54" height="219.99"/><rect class="cls-2" x="8.27" y="36.35" width="160" height="160"/><text class="cls-3" transform="translate(25.19 175.27)">PR<tspan x="24.7" y="0">O</tspan><tspan x="37.63" y="0">T</tspan><tspan x="49.05" y="0">O</tspan><tspan class="cls-4" x="61.98" y="0">T</tspan><tspan x="73.79" y="0">YPING</tspan></text><rect class="cls-5" x="36.45" y="54.35" width="99.84" height="54.68"/><rect class="cls-5" x="36.45" y="109.03" width="99.84" height="13.62"/><polygon class="cls-6" points="105.14 147.35 66.53 147.35 73.27 133.36 73.27 123.35 97.27 123.35 97.27 133.36 105.14 147.35"/><circle class="cls-7" cx="86.37" cy="115.84" r="2.42"/><rect class="cls-8" x="74.6" y="61.69" width="50.75" height="21.23"/><rect class="cls-8" x="44.84" y="61.69" width="18.35" height="17.44"/><rect class="cls-1" x="107.74" y="87.61" width="17.61" height="16.74"/><polyline class="cls-8" points="125.35 102.52 125.35 104.34 123.52 104.34"/><line class="cls-9" x1="118.29" y1="104.34" x2="112.18" y2="104.34"/><polyline class="cls-8" points="109.57 104.34 107.74 104.34 107.74 102.52"/><line class="cls-10" x1="107.74" y1="97.61" x2="107.74" y2="91.89"/><polyline class="cls-8" points="107.74 89.43 107.74 87.61 109.57 87.61"/><line class="cls-9" x1="114.8" y1="87.61" x2="120.91" y2="87.61"/><polyline class="cls-8" points="123.52 87.61 125.35 87.61 125.35 89.43"/><line class="cls-10" x1="125.35" y1="94.34" x2="125.35" y2="100.06"/><rect class="cls-11" x="122.96" y="94.69" width="17.61" height="16.74"/><rect class="cls-11" x="73.96" y="87.61" width="28.72" height="16.74"/><line class="cls-8" x1="44.84" y1="86.24" x2="63.19" y2="86.24"/><line class="cls-8" x1="44.84" y1="92.33" x2="63.19" y2="92.33"/><line class="cls-8" x1="44.84" y1="98.37" x2="63.19" y2="98.37"/><polygon class="cls-12" points="137.23 104.58 147.39 107.33 141.06 114.59 137.23 104.58"/><line class="cls-12" x1="144.52" y1="111.04" x2="149.43" y2="115.32"/></svg>