<svg id="Layer_1" data-name="Layer 1" xmlns="http://www.w3.org/2000/svg" viewBox="0 0 176.54 219.99"><defs><style>.cls-1,.cls-9{fill:#fff;}.cls-2,.cls-5,.cls-6,.cls-7,.cls-8{fill:none;}.cls-2{stroke:#9ac4d8;stroke-width:5px;}.cls-2,.cls-5,.cls-6,.cls-7,.cls-8,.cls-9{stroke-linecap:round;}.cls-2,.cls-5,.cls-6{stroke-linejoin:round;}.cls-3{font-size:18px;fill:#0058ff;font-family:Roboto;}.cls-4{fill:#ff475b;}.cls-5,.cls-6,.cls-7,.cls-8,.cls-9{stroke:#ff475b;}.cls-5,.cls-7{stroke-width:3px;}.cls-6,.cls-8,.cls-9{stroke-width:3.1px;}.cls-7,.cls-8,.cls-9{stroke-miterlimit:10;}</style></defs><title>research</title><rect class="cls-1" width="176.54" height="219.99"/><rect class="cls-2" x="8.27" y="35.84" width="160" height="160"/><text class="cls-3" transform="translate(42.51 175.26)">RESEARCH</text><path class="cls-4" d="M2408.24,4286.15h0a5.94,5.94,0,0,1-5.94-5.94v-29.69h11.89v29.69A5.94,5.94,0,0,1,2408.24,4286.15Z" transform="translate(-2361.23 -4144.66)"/><line class="cls-5" x1="36.77" y1="58.84" x2="57.77" y2="58.84"/><line class="cls-5" x1="94.77" y1="58.84" x2="116.77" y2="58.84"/><path class="cls-6" d="M40.2,58.88H53.82a0,0,0,0,1,0,0v75.8A6.81,6.81,0,0,1,47,141.49h0a6.81,6.81,0,0,1-6.81-6.81V58.88A0,0,0,0,1,40.2,58.88Z"/><path class="cls-6" d="M2495.64,4286.15h-56.91a3.85,3.85,0,0,1-3.4-5.68l24.95-46.5v-30.44h13.63v30.34l25.12,46.59A3.85,3.85,0,0,1,2495.64,4286.15Z" transform="translate(-2361.23 -4144.66)"/><path class="cls-4" d="M2497.24,4286.15h-60.1a2.9,2.9,0,0,1-2.56-4.27l11.23-20.94h42.67l11.3,20.93A2.9,2.9,0,0,1,2497.24,4286.15Z" transform="translate(-2361.23 -4144.66)"/><line class="cls-7" x1="47.77" y1="92.84" x2="52.77" y2="92.84"/><line class="cls-7" x1="47.77" y1="85.84" x2="52.77" y2="85.84"/><line class="cls-7" x1="47.77" y1="100.84" x2="52.77" y2="100.84"/><line class="cls-7" x1="118.77" y1="111.84" x2="124.77" y2="111.84"/><line class="cls-7" x1="113.77" y1="103.84" x2="120.77" y2="103.84"/><line class="cls-7" x1="109.77" y1="96.84" x2="115.77" y2="96.84"/><circle class="cls-8" cx="107.7" cy="15.79" r="8.79"/><circle class="cls-9" cx="95.1" cy="33.73" r="4.44"/><circle class="cls-8" cx="107.08" cy="46.26" r="3.72"/><polygon class="cls-4" points="54.23 65.37 40.01 65.37 38.46 51.9 55.78 51.9 54.23 65.37"/></svg>