<svg id="Layer_1" data-name="Layer 1" xmlns="http://www.w3.org/2000/svg" viewBox="0 0 176.54 219.99"><defs><style>.cls-1,.cls-6,.cls-7,.cls-8,.cls-9{fill:#fff;}.cls-10,.cls-11,.cls-2,.cls-4,.cls-5{fill:none;}.cls-2{stroke:#9ac4d8;stroke-width:5px;}.cls-10,.cls-11,.cls-2,.cls-9{stroke-linecap:round;}.cls-10,.cls-11,.cls-2,.cls-4,.cls-5,.cls-6,.cls-7,.cls-8,.cls-9{stroke-linejoin:round;}.cls-3{font-size:18px;fill:#0058ff;font-family:Roboto;}.cls-10,.cls-11,.cls-4,.cls-5,.cls-6,.cls-7,.cls-8,.cls-9{stroke:#ff475b;}.cls-4{stroke-width:2px;}.cls-5{stroke-width:1.57px;}.cls-6{stroke-width:2.05px;}.cls-7{stroke-width:1.02px;}.cls-10,.cls-11,.cls-8{stroke-width:1.72px;}.cls-11{stroke-dasharray:4.49 4.49;}.cls-12{fill:#ff475b;}</style></defs><title>responsive</title><rect class="cls-1" width="176.54" height="219.99"/><rect class="cls-2" x="8.37" y="36.11" width="160" height="160"/><text class="cls-3" transform="translate(30.54 161.06)">RESPONSIVE <tspan x="26.04" y="21.6">DESIGN</tspan></text><rect class="cls-4" x="26.18" y="51.11" width="90.11" height="49.35"/><rect class="cls-4" x="26.18" y="100.46" width="90.11" height="13.15"/><polygon class="cls-4" points="88.17 133.61 52.69 133.61 58.87 122.42 58.87 113.61 80.86 113.61 80.86 122.42 88.17 133.61"/><circle class="cls-5" cx="71.24" cy="106.61" r="2.19"/><rect class="cls-6" x="98.55" y="87.52" width="35.47" height="37.08"/><rect class="cls-6" x="98.55" y="82.73" width="35.47" height="4.79"/><rect class="cls-6" x="98.55" y="124.6" width="35.47" height="9.53"/><circle class="cls-7" cx="116.29" cy="129.36" r="1.79"/><rect class="cls-8" x="131.86" y="108.75" width="19.59" height="18.26"/><rect class="cls-8" x="131.86" y="102.31" width="19.59" height="6.44"/><rect class="cls-8" x="131.86" y="127.01" width="19.59" height="7.12"/><circle class="cls-7" cx="141.65" cy="130.57" r="1.68"/><line class="cls-9" x1="138.87" y1="106.11" x2="142.87" y2="106.11"/><line class="cls-1" x1="41.18" y1="59.79" x2="142.32" y2="118.27"/><line class="cls-10" x1="41.18" y1="59.79" x2="43.17" y2="60.93"/><line class="cls-11" x1="47.05" y1="63.18" x2="138.4" y2="116"/><line class="cls-10" x1="140.34" y1="117.13" x2="142.32" y2="118.27"/><path class="cls-12" d="M2314,4734.1l-3.18,5.33a0.85,0.85,0,0,0,.88,1.17l5.5-.33a0.65,0.65,0,0,0,.57-1l-2.32-5A0.85,0.85,0,0,0,2314,4734.1Z" transform="translate(-2170.13 -4618.39)"/><path class="cls-12" d="M2209.76,4680.64l3.08-5.39a0.85,0.85,0,0,0-.9-1.15l-5.49.43a0.65,0.65,0,0,0-.55,1l2.41,5A0.85,0.85,0,0,0,2209.76,4680.64Z" transform="translate(-2170.13 -4618.39)"/></svg>