<svg id="Layer_1" data-name="Layer 1" xmlns="http://www.w3.org/2000/svg" viewBox="0 0 176.54 219.99"><defs><style>.cls-1,.cls-5{fill:#fff;}.cls-2,.cls-4,.cls-6,.cls-7{fill:none;}.cls-2{stroke:#9ac4d8;stroke-width:5px;}.cls-2,.cls-4,.cls-5,.cls-6,.cls-7{stroke-linecap:round;stroke-linejoin:round;}.cls-3{font-size:18px;fill:#0058ff;font-family:Roboto;}.cls-4,.cls-5,.cls-6,.cls-7{stroke:#ff475b;}.cls-4,.cls-5{stroke-width:3.93px;}.cls-6{stroke-width:4px;}.cls-7{stroke-width:2.62px;}</style></defs><title>strategy</title><rect class="cls-1" width="176.54" height="219.99"/><rect class="cls-2" x="8.37" y="35.84" width="160" height="160"/><text class="cls-3" transform="translate(43.35 175.26)">STR<tspan x="35.92" y="0">A</tspan><tspan x="47.07" y="0">TEGY</tspan></text><rect class="cls-4" x="65.37" y="121.55" width="54.99" height="14.84"/><polygon class="cls-4" points="113.81 121.55 71.92 121.55 80.21 54.35 102.47 54.35 113.81 121.55"/><polygon class="cls-5" points="74.42 26.31 107.71 26.31 101.16 54.35 80.97 54.35 74.42 26.31"/><line class="cls-6" x1="73.87" y1="54.34" x2="108.87" y2="54.34"/><path class="cls-4" d="M88.27,16.79h5.31a9,9,0,0,1,9,9V26.1a0,0,0,0,1,0,0H79.24a0,0,0,0,1,0,0V25.82A9,9,0,0,1,88.27,16.79Z"/><circle class="cls-4" cx="90.93" cy="12.43" r="3.52"/><line class="cls-7" x1="98.92" y1="75.42" x2="106.28" y2="121.55"/><line class="cls-7" x1="96.79" y1="62.1" x2="98.04" y2="69.88"/><line class="cls-7" x1="98.04" y1="44.9" x2="101.05" y2="32.32"/></svg>