<svg id="Layer_1" data-name="Layer 1" xmlns="http://www.w3.org/2000/svg" viewBox="0 0 176.54 219.99"><defs><style>.cls-1,.cls-6{fill:#fff;}.cls-2,.cls-5{fill:none;}.cls-2{stroke:#9ac4d8;stroke-width:5px;}.cls-2,.cls-6{stroke-linecap:round;}.cls-2,.cls-5,.cls-6{stroke-linejoin:round;}.cls-3{fill:#0058ff;}.cls-4{font-size:16px;fill:#ff475b;font-family:Roboto;font-weight:700;}.cls-5,.cls-6{stroke:#ff475b;stroke-width:3px;}</style></defs><title>usability</title><rect class="cls-1" width="176.54" height="219.99"/><rect class="cls-2" x="8.37" y="36.35" width="160" height="160"/><path class="cls-3" d="M2222.77,4511.41v8.5a4.13,4.13,0,0,1-1.37,3.3,5.21,5.21,0,0,1-3.53,1.19,4.91,4.91,0,0,1-3.41-1.19,4.2,4.2,0,0,1-1.33-3.29v-8.5h1.73v8.5a3.08,3.08,0,0,0,.84,2.3,3,3,0,0,0,2.17.83,3.2,3.2,0,0,0,2.29-.83,3,3,0,0,0,.88-2.3v-8.5h1.73Z" transform="translate(-2170.13 -4365.15)"/><path class="cls-3" d="M2233.24,4521a1.93,1.93,0,0,0-.62-1.46,5.2,5.2,0,0,0-2.2-1,7.32,7.32,0,0,1-3-1.42,3,3,0,0,1-1.09-2.36,3.15,3.15,0,0,1,1.18-2.5,4.56,4.56,0,0,1,3.06-1,4.46,4.46,0,0,1,3.22,1.15,3.47,3.47,0,0,1,1.16,2.68l0,0.05h-1.65a2.36,2.36,0,0,0-.76-1.8,2.73,2.73,0,0,0-1.95-.71,2.67,2.67,0,0,0-1.86.59,2,2,0,0,0-.65,1.53,1.71,1.71,0,0,0,.71,1.39,6.53,6.53,0,0,0,2.3,1,6.52,6.52,0,0,1,2.94,1.48,3.21,3.21,0,0,1,1,2.41,3,3,0,0,1-1.22,2.49,5.05,5.05,0,0,1-3.18.94,5.4,5.4,0,0,1-3.27-1,3.16,3.16,0,0,1-1.38-2.78l0-.05h1.65a2.15,2.15,0,0,0,.91,1.86,3.45,3.45,0,0,0,2.07.66,3.11,3.11,0,0,0,1.95-.55A1.8,1.8,0,0,0,2233.24,4521Z" transform="translate(-2170.13 -4365.15)"/><path class="cls-3" d="M2244.93,4520.91h-4.82l-1.14,3.3h-1.77l4.61-12.8h1.49l4.52,12.8h-1.77Zm-4.32-1.45h3.82l-1.86-5.49h-0.05Z" transform="translate(-2170.13 -4365.15)"/><path class="cls-3" d="M2250.6,4524.21v-12.8h4.17a5.07,5.07,0,0,1,3.14.87,3.06,3.06,0,0,1,1.13,2.6,2.34,2.34,0,0,1-.51,1.48,3.19,3.19,0,0,1-1.35,1,3,3,0,0,1,2,1.09,3.34,3.34,0,0,1,.73,2.15,3.25,3.25,0,0,1-1.14,2.68,4.76,4.76,0,0,1-3.09.93h-5.07Zm1.73-7.36h2.8a2.29,2.29,0,0,0,1.57-.53,2.14,2.14,0,0,0,0-3,3,3,0,0,0-1.89-.51h-2.44v4.08Zm0,1.35v4.65h3.34a2.67,2.67,0,0,0,1.84-.58,2.11,2.11,0,0,0,.65-1.66,2.28,2.28,0,0,0-.67-1.71,2.63,2.63,0,0,0-1.8-.69h-3.37Z" transform="translate(-2170.13 -4365.15)"/><path class="cls-3" d="M2264.86,4524.21h-1.74v-12.8h1.74v12.8Z" transform="translate(-2170.13 -4365.15)"/><path class="cls-3" d="M2270.67,4522.85h6.24v1.35h-8v-12.8h1.73v11.44Z" transform="translate(-2170.13 -4365.15)"/><path class="cls-3" d="M2281.65,4524.21h-1.74v-12.8h1.74v12.8Z" transform="translate(-2170.13 -4365.15)"/><path class="cls-3" d="M2294.41,4512.77h-4.22v11.43h-1.73v-11.43h-4.17v-1.36h10.12v1.36Z" transform="translate(-2170.13 -4365.15)"/><path class="cls-3" d="M2301.45,4517.91l3.34-6.5h2l-4.49,8.3v4.5h-1.72v-4.63l-4.42-8.17h2Z" transform="translate(-2170.13 -4365.15)"/><path class="cls-3" d="M2231,4534.37h-4.22v11.43h-1.73v-11.43h-4.17V4533H2231v1.36Z" transform="translate(-2170.13 -4365.15)"/><path class="cls-3" d="M2240.74,4539.87h-5.26v4.58h6.15v1.35h-7.88V4533h7.79v1.36h-6.06v4.14h5.26v1.36Z" transform="translate(-2170.13 -4365.15)"/><path class="cls-3" d="M2251.4,4542.58a1.93,1.93,0,0,0-.62-1.46,5.2,5.2,0,0,0-2.2-1,7.32,7.32,0,0,1-3-1.42,3,3,0,0,1-1.09-2.36,3.15,3.15,0,0,1,1.18-2.5,4.56,4.56,0,0,1,3.06-1,4.46,4.46,0,0,1,3.22,1.15,3.47,3.47,0,0,1,1.16,2.68l0,0.05h-1.65a2.36,2.36,0,0,0-.76-1.8,2.73,2.73,0,0,0-1.95-.71,2.67,2.67,0,0,0-1.86.59,2,2,0,0,0-.65,1.53,1.71,1.71,0,0,0,.71,1.39,6.53,6.53,0,0,0,2.3,1,6.52,6.52,0,0,1,2.94,1.48,3.21,3.21,0,0,1,1,2.41,3,3,0,0,1-1.22,2.49,5.05,5.05,0,0,1-3.18.94,5.4,5.4,0,0,1-3.27-1,3.16,3.16,0,0,1-1.38-2.78l0-.05h1.65a2.15,2.15,0,0,0,.91,1.86,3.45,3.45,0,0,0,2.07.66,3.11,3.11,0,0,0,1.95-.55A1.8,1.8,0,0,0,2251.4,4542.58Z" transform="translate(-2170.13 -4365.15)"/><path class="cls-3" d="M2265.43,4534.37h-4.22v11.43h-1.73v-11.43h-4.17V4533h10.12v1.36Z" transform="translate(-2170.13 -4365.15)"/><path class="cls-3" d="M2270.07,4545.81h-1.74V4533h1.74v12.8Z" transform="translate(-2170.13 -4365.15)"/><path class="cls-3" d="M2283.82,4545.81h-1.73l-6.16-9.77-0.05,0v9.76h-1.73V4533h1.73l6.16,9.76,0.05,0V4533h1.73v12.8Z" transform="translate(-2170.13 -4365.15)"/><path class="cls-3" d="M2296.92,4544.08a4.12,4.12,0,0,1-1.59,1.31,6.25,6.25,0,0,1-2.93.6,4.94,4.94,0,0,1-3.67-1.47,5.17,5.17,0,0,1-1.45-3.8v-2.64a5.28,5.28,0,0,1,1.4-3.8,4.75,4.75,0,0,1,3.6-1.47,4.8,4.8,0,0,1,3.38,1.14,3.66,3.66,0,0,1,1.2,2.9l0,0.05h-1.66a2.68,2.68,0,0,0-.76-1.95,2.86,2.86,0,0,0-2.14-.78,2.9,2.9,0,0,0-2.36,1.1,4.26,4.26,0,0,0-.9,2.79v2.65a4.15,4.15,0,0,0,.95,2.81,3.06,3.06,0,0,0,2.43,1.1,4.51,4.51,0,0,0,1.8-.29,2.59,2.59,0,0,0,1-.7v-2.88h-2.9v-1.35h4.63v4.68Z" transform="translate(-2170.13 -4365.15)"/><text class="cls-4" transform="translate(56.04 103.54)">SUBM<tspan x="48.2" y="0">I</tspan><tspan x="53.47" y="0">T</tspan></text><rect class="cls-5" x="38.71" y="77.57" width="97.24" height="42.45"/><polygon class="cls-6" points="120.96 109.23 141.93 114.9 128.86 129.89 120.96 109.23"/><line class="cls-6" x1="136" y1="122.55" x2="146.14" y2="131.39"/></svg>