<svg id="Layer_1" data-name="Layer 1" xmlns="http://www.w3.org/2000/svg" viewBox="0 0 176.54 219.99"><defs><style>.cls-1{fill:#fff;}.cls-2,.cls-4{fill:none;stroke-linejoin:round;}.cls-2{stroke:#9ac4d8;stroke-linecap:round;stroke-width:5px;}.cls-3{fill:#0058ff;}.cls-4{stroke:#ff475b;stroke-width:3px;}</style></defs><title>userflow</title><rect class="cls-1" width="176.54" height="219.99"/><rect class="cls-2" x="7.77" y="35.84" width="160" height="160"/><path class="cls-3" d="M2592.85,4307.13v8.5a4.13,4.13,0,0,1-1.37,3.3,5.21,5.21,0,0,1-3.53,1.19,4.91,4.91,0,0,1-3.41-1.19,4.2,4.2,0,0,1-1.33-3.29v-8.5h1.73v8.5a3.08,3.08,0,0,0,.84,2.3,3,3,0,0,0,2.17.83,3.2,3.2,0,0,0,2.29-.83,3,3,0,0,0,.88-2.3v-8.5h1.73Z" transform="translate(-2549.73 -4144.66)"/><path class="cls-3" d="M2603.31,4316.7a1.93,1.93,0,0,0-.62-1.46,5.2,5.2,0,0,0-2.2-1,7.32,7.32,0,0,1-3-1.42,3,3,0,0,1-1.09-2.36,3.15,3.15,0,0,1,1.18-2.5,4.56,4.56,0,0,1,3.06-1,4.46,4.46,0,0,1,3.22,1.15,3.47,3.47,0,0,1,1.16,2.68l0,0.05h-1.65a2.36,2.36,0,0,0-.76-1.8,2.73,2.73,0,0,0-1.95-.71,2.67,2.67,0,0,0-1.86.59,2,2,0,0,0-.65,1.53,1.71,1.71,0,0,0,.71,1.39,6.53,6.53,0,0,0,2.3,1,6.52,6.52,0,0,1,2.94,1.48,3.21,3.21,0,0,1,1,2.41,3,3,0,0,1-1.22,2.49,5.05,5.05,0,0,1-3.18.94,5.4,5.4,0,0,1-3.27-1,3.16,3.16,0,0,1-1.38-2.78l0-.05h1.65a2.15,2.15,0,0,0,.91,1.86,3.45,3.45,0,0,0,2.07.66,3.11,3.11,0,0,0,1.95-.55A1.8,1.8,0,0,0,2603.31,4316.7Z" transform="translate(-2549.73 -4144.66)"/><path class="cls-3" d="M2615.38,4314h-5.26v4.58h6.15v1.35h-7.88v-12.8h7.79v1.36h-6.06v4.14h5.26V4314Z" transform="translate(-2549.73 -4144.66)"/><path class="cls-3" d="M2621,4314.38v5.55h-1.73v-12.79h4.38a4.86,4.86,0,0,1,3.21.93,3.34,3.34,0,0,1,1.11,2.71,2.9,2.9,0,0,1-.51,1.71,3.49,3.49,0,0,1-1.5,1.16,2.63,2.63,0,0,1,1.52,1.11,3.64,3.64,0,0,1,.46,1.9v1.2a4,4,0,0,0,.13,1.07,1.61,1.61,0,0,0,.46.77v0.21h-1.78a1.43,1.43,0,0,1-.44-0.88,7.26,7.26,0,0,1-.1-1.2v-1.17a2.31,2.31,0,0,0-.61-1.67,2.15,2.15,0,0,0-1.63-.63h-3Zm0-1.36h2.47a3.21,3.21,0,0,0,2.11-.56,2.12,2.12,0,0,0,.65-1.7,2.19,2.19,0,0,0-.63-1.67,2.77,2.77,0,0,0-2-.59H2621V4313Z" transform="translate(-2549.73 -4144.66)"/><path class="cls-3" d="M2644.08,4314.26h-5.4v5.66H2637v-12.8h8v1.36h-6.29v4.41h5.4v1.36Z" transform="translate(-2549.73 -4144.66)"/><path class="cls-3" d="M2649.52,4318.57h6.24v1.35h-8v-12.8h1.73v11.44Z" transform="translate(-2549.73 -4144.66)"/><path class="cls-3" d="M2667.78,4314.67a5.46,5.46,0,0,1-1.46,3.89,4.94,4.94,0,0,1-3.77,1.55,4.69,4.69,0,0,1-3.64-1.55,5.58,5.58,0,0,1-1.4-3.89v-2.28a5.6,5.6,0,0,1,1.4-3.89,4.68,4.68,0,0,1,3.64-1.56,4.94,4.94,0,0,1,3.77,1.55,5.47,5.47,0,0,1,1.46,3.9v2.28Zm-1.73-2.29a4.32,4.32,0,0,0-.95-2.88,3.16,3.16,0,0,0-2.55-1.12,2.93,2.93,0,0,0-2.41,1.13,4.47,4.47,0,0,0-.9,2.88v2.29a4.5,4.5,0,0,0,.9,2.9,2.93,2.93,0,0,0,2.41,1.13,3.16,3.16,0,0,0,2.55-1.12,4.35,4.35,0,0,0,.95-2.9v-2.29Z" transform="translate(-2549.73 -4144.66)"/><path class="cls-3" d="M2673.75,4315.48l0.22,1.68H2674l0.3-1.69,2.27-8.36h1.7l2.29,8.36,0.3,1.71h0.05l0.24-1.71,1.83-8.36h1.88l-3.09,12.8h-1.55l-2.56-8.88-0.19-1.15h-0.05l-0.18,1.15-2.59,8.88h-1.55l-3.08-12.8h1.87Z" transform="translate(-2549.73 -4144.66)"/><path class="cls-3" d="M2694.4,4316.7a1.93,1.93,0,0,0-.62-1.46,5.2,5.2,0,0,0-2.2-1,7.32,7.32,0,0,1-3-1.42,3,3,0,0,1-1.09-2.36,3.15,3.15,0,0,1,1.18-2.5,4.56,4.56,0,0,1,3.06-1,4.46,4.46,0,0,1,3.22,1.15,3.47,3.47,0,0,1,1.16,2.68l0,0.05h-1.65a2.36,2.36,0,0,0-.76-1.8,2.73,2.73,0,0,0-1.95-.71,2.67,2.67,0,0,0-1.86.59,2,2,0,0,0-.65,1.53,1.71,1.71,0,0,0,.71,1.39,6.53,6.53,0,0,0,2.3,1,6.52,6.52,0,0,1,2.94,1.48,3.21,3.21,0,0,1,1,2.41,3,3,0,0,1-1.22,2.49,5.05,5.05,0,0,1-3.18.94,5.4,5.4,0,0,1-3.27-1,3.16,3.16,0,0,1-1.38-2.78l0-.05h1.65a2.15,2.15,0,0,0,.91,1.86,3.45,3.45,0,0,0,2.07.66,3.11,3.11,0,0,0,1.95-.55A1.8,1.8,0,0,0,2694.4,4316.7Z" transform="translate(-2549.73 -4144.66)"/><rect class="cls-4" x="68.36" y="59.43" width="37.21" height="20.19"/><rect class="cls-4" x="2631.26" y="4238.3" width="10.99" height="10.99" transform="translate(-4778.26 -1037.21) rotate(-45)"/><line class="cls-4" x1="86.77" y1="80.34" x2="86.77" y2="91.34"/><polyline class="cls-4" points="94.27 99.84 118.77 99.84 118.77 120.34"/><line class="cls-4" x1="86.77" y1="107.34" x2="86.77" y2="121.34"/><polyline class="cls-4" points="80.27 99.84 55.77 99.84 55.77 120.34"/><circle class="cls-4" cx="55.87" cy="127.54" r="6.74"/><circle class="cls-4" cx="119.34" cy="127.54" r="6.74"/><circle class="cls-4" cx="86.97" cy="127.54" r="6.74"/></svg>