<svg id="Layer_1" data-name="Layer 1" xmlns="http://www.w3.org/2000/svg" viewBox="0 0 176.54 219.99"><defs><style>.cls-1{fill:#fff;}.cls-2,.cls-4,.cls-6{fill:none;}.cls-2{stroke:#9ac4d8;stroke-width:5px;}.cls-2,.cls-6{stroke-linecap:round;}.cls-2,.cls-4,.cls-5,.cls-6{stroke-linejoin:round;}.cls-3{font-size:18px;fill:#0058ff;font-family:Roboto;}.cls-4,.cls-5,.cls-6{stroke:#ff475b;stroke-width:3.29px;}.cls-5{fill:#ff475b;}</style></defs><title>wireframing</title><rect class="cls-1" width="176.54" height="219.99"/><rect class="cls-2" x="7.46" y="35.84" width="160" height="160"/><text class="cls-3" transform="translate(24.8 175.26)">WIREFRAMING</text><rect class="cls-4" x="27.16" y="67.81" width="119.8" height="65.01"/><rect class="cls-4" x="42.15" y="75.44" width="89.82" height="33.45"/><rect class="cls-5" x="27.16" y="60.9" width="119.8" height="6.95"/><circle class="cls-1" cx="32.97" cy="64.37" r="1.81"/><circle class="cls-1" cx="39.42" cy="64.37" r="1.81"/><circle class="cls-1" cx="45.99" cy="64.37" r="1.81"/><line class="cls-4" x1="42.15" y1="75.44" x2="131.97" y2="108.89"/><line class="cls-4" x1="42.15" y1="108.89" x2="131.97" y2="75.44"/><rect class="cls-4" x="42.15" y="115.97" width="38.78" height="16.85"/><line class="cls-4" x1="42.15" y1="115.97" x2="61.34" y2="131.44"/><line class="cls-4" x1="61.54" y1="131.6" x2="80.93" y2="115.97"/><line class="cls-6" x1="89.87" y1="116.69" x2="131.97" y2="116.69"/><line class="cls-6" x1="89.87" y1="122.17" x2="131.97" y2="122.17"/><line class="cls-6" x1="89.87" y1="127.51" x2="131.97" y2="127.51"/></svg>